<svg width="56" height="44" viewBox="0 0 56 44" fill="none" xmlns="http://www.w3.org/2000/svg">
<path d="M0 3.6C0 1.60875 1.76516 0 3.95 0H51.35C53.5348 0 55.3 1.60875 55.3 3.6C55.3 5.59125 53.5348 7.2 51.35 7.2H3.95C1.76516 7.2 0 5.59125 0 3.6ZM0 21.6C0 19.6088 1.76516 18 3.95 18H51.35C53.5348 18 55.3 19.6088 55.3 21.6C55.3 23.5913 53.5348 25.2 51.35 25.2H3.95C1.76516 25.2 0 23.5913 0 21.6ZM55.3 39.6C55.3 41.5913 53.5348 43.2 51.35 43.2H3.95C1.76516 43.2 0 41.5913 0 39.6C0 37.6088 1.76516 36 3.95 36H51.35C53.5348 36 55.3 37.6088 55.3 39.6Z" fill="#6F22D4"/>
</svg>
